# xmcd
#
# Track frame offsets: 
#        150
#        13120
#        21445
#        30920
#        41655
#        50374
#        60148
#        71497
#        83136
#        94312
#        106162
#        116659
#        128063
#        140862
#        153522
#        166716
#        178260
#        188991
#        202696
#        216926
#        228061
#        240320
#        251335
#        263728
#        275184
#        286192
#
# Disc length: 3966 seconds
#
# Revision: 0
# Processed by: cddbd v1.5.2PL0 Copyright (c) Steve Scherf et al.
# Submitted via: ExactAudioCopy v1.0b1
#
DISCID=620f7c1a
DTITLE=Eddie Holland - It Moves Me - Complete Recordings
DYEAR=2012
DGENRE=R&B
TTITLE0=Action Speaks Louder Than Words
TTITLE1=Bashful Kind
TTITLE2=Rain And Thunder
TTITLE3=Happy Days
TTITLE4=I'm So Glad I Learned To Do The Cha-Cha
TTITLE5=True Love Will Go A Mighty Long Way
TTITLE6=Gotta Have Your Love
TTITLE7=A Little Bit Of Lovin'
TTITLE8=Love Is What You Make It
TTITLE9=Day Dreamer
TTITLE10=So Great Is My Love
TTITLE11=Twin Brother (version 1)
TTITLE12=Twin Brother (version 2)
TTITLE13=Welcome Back
TTITLE14=(Loneliness Made Me Realize) It's You That I Need
TTITLE15=I'm Grateful
TTITLE16=Heart Broken, Heart Breaker (And The Clock)
TTITLE17=You're Sweeter As The Days Go By
TTITLE18=It's Best To Be Sure
TTITLE19=Happy Go Lucky
TTITLE20=Too Late To Cry
TTITLE21=Pretty Little Angel Face
TTITLE22=Take Me In Your Arms (Rock Me A Little While)
TTITLE23=I Like Everything About You
TTITLE24=Jamie (stereo)
TTITLE25=Leaving Here (stereo)
EXTD=
EXTT0=
EXTT1=
EXTT2=
EXTT3=
EXTT4=
EXTT5=
EXTT6=
EXTT7=
EXTT8=
EXTT9=
EXTT10=
EXTT11=
EXTT12=
EXTT13=
EXTT14=
EXTT15=
EXTT16=
EXTT17=
EXTT18=
EXTT19=
EXTT20=
EXTT21=
EXTT22=
EXTT23=
EXTT24=
EXTT25=
PLAYORDER=
